<?xml version="1.0" encoding="UTF-8"?>
<svg width="800px" height="500px" viewBox="0 0 800 500" version="1.1" xmlns="http://www.w3.org/2000/svg" xmlns:xlink="http://www.w3.org/1999/xlink">
    <title>World Map</title>
    <g stroke="white" stroke-width="1" fill="none" fill-rule="evenodd" opacity="0.8">
        <!-- North America -->
        <path d="M170,80 C180,70 200,60 220,70 C240,80 260,90 280,85 C300,80 310,70 320,60 C330,50 340,40 350,50 C360,60 370,70 360,80 C350,90 340,100 330,110 C320,120 310,130 300,140 C290,150 280,160 270,170 C260,180 250,190 240,200 C230,210 220,220 210,210 C200,200 190,190 180,180 C170,170 160,160 150,150 C140,140 130,130 120,120 C110,110 100,100 110,90 C120,80 130,70 140,80 C150,90 160,100 170,80 Z"></path>
        
        <!-- South America -->
        <path d="M240,220 C250,210 260,200 270,210 C280,220 290,230 300,240 C310,250 320,260 310,270 C300,280 290,290 280,300 C270,310 260,320 250,330 C240,340 230,350 220,340 C210,330 200,320 210,310 C220,300 230,290 240,280 C250,270 260,260 250,250 C240,240 230,230 240,220 Z"></path>
        
        <!-- Europe -->
        <path d="M400,80 C410,70 420,60 430,70 C440,80 450,90 460,100 C470,110 480,120 470,130 C460,140 450,150 440,140 C430,130 420,120 410,110 C400,100 390,90 400,80 Z"></path>
        
        <!-- Africa -->
        <path d="M400,150 C410,140 420,130 430,140 C440,150 450,160 460,170 C470,180 480,190 490,200 C500,210 510,220 500,230 C490,240 480,250 470,260 C460,270 450,280 440,270 C430,260 420,250 410,240 C400,230 390,220 380,210 C370,200 360,190 370,180 C380,170 390,160 400,150 Z"></path>
        
        <!-- Asia -->
        <path d="M500,80 C510,70 520,60 530,70 C540,80 550,90 560,100 C570,110 580,120 590,130 C600,140 610,150 620,160 C630,170 640,180 650,190 C660,200 670,210 660,220 C650,230 640,240 630,230 C620,220 610,210 600,200 C590,190 580,180 570,170 C560,160 550,150 540,140 C530,130 520,120 510,110 C500,100 490,90 500,80 Z"></path>
        
        <!-- Australia -->
        <path d="M650,250 C660,240 670,230 680,240 C690,250 700,260 690,270 C680,280 670,290 660,280 C650,270 640,260 650,250 Z"></path>
        
        <!-- Location Markers -->
        <circle cx="200" cy="150" r="5" fill="white" stroke="none"></circle>
        <circle cx="450" cy="120" r="5" fill="white" stroke="none"></circle>
        <circle cx="550" cy="150" r="5" fill="white" stroke="none"></circle>
        <circle cx="400" cy="200" r="5" fill="white" stroke="none"></circle>
        <circle cx="670" cy="260" r="5" fill="white" stroke="none"></circle>
        <circle cx="250" cy="250" r="5" fill="white" stroke="none"></circle>
        
        <!-- Connection Lines -->
        <path d="M200,150 C250,140 300,130 350,120 C400,110 450,120 450,120" stroke-dasharray="5,5"></path>
        <path d="M450,120 C480,130 510,140 550,150" stroke-dasharray="5,5"></path>
        <path d="M550,150 C520,170 490,190 400,200" stroke-dasharray="5,5"></path>
        <path d="M400,200 C350,220 300,240 250,250" stroke-dasharray="5,5"></path>
        <path d="M550,150 C600,180 650,210 670,260" stroke-dasharray="5,5"></path>
    </g>
</svg>
